grf.mot																		
version=1																		
nRows=14
nColumns=31
inDegrees=yes																		
endheader																		
time	ground_force_vx	ground_force_vy	ground_force_vz	ground_force_px	ground_force_py	ground_force_pz	1_ground_force_vx	1_ground_force_vy	1_ground_force_vz	1_ground_force_px	1_ground_force_py	1_ground_force_pz	ground_torque_x	ground_torque_y	ground_torque_z	1_ground_torque_x	1_ground_torque_y	1_ground_torque_z	apo_force_vx	apo_force_vy	apo_force_vz	apo_force_px	apo_force_py	apo_force_pz	1_apo_force_vx	1_apo_force_vy	1_apo_force_vz	1_apo_force_px	1_apo_force_py	1_apo_force_pz	
2.47952000000000	0.00000000000000	0.00000000000000	0.00000000000000	0.00000000000000	0.00000000000000	0.00000000000000	74.59139999999999	739.40400000000000	53.55900000000000	-0.28004000000000	0.00000000000000	-0.10334200000000	0.00000000000000	0.00000000000000	0.00000000000000	0.00000000000000	4.00596000000000	0.00000000000000	5.22920000000000	4.58200000000000	0.00000000000000	0.00000000000000	-0.35000000000000	0.00000000000000	-5.72110000000000	0.49718000000000	0.00000000000000	0.00000000000000	-0.35000000000000	0.00000000000000	
2.48452000000000	0.00000000000000	0.00000000000000	0.00000000000000	0.00000000000000	0.00000000000000	0.00000000000000	83.05750000000001	776.57000000000005	55.99860000000000	-0.28896300000000	0.00000000000000	-0.10377300000000	0.00000000000000	0.00000000000000	0.00000000000000	0.00000000000000	3.78052000000000	0.00000000000000	5.74870000000000	5.05490000000000	0.00000000000000	0.00000000000000	-0.35000000000000	0.00000000000000	-6.43530000000000	0.65886000000000	0.00000000000000	0.00000000000000	-0.35000000000000	0.00000000000000	
2.48952000000000	0.00000000000000	0.00000000000000	0.00000000000000	0.00000000000000	0.00000000000000	0.00000000000000	91.92189999999999	812.35000000000002	58.08890000000000	-0.29868100000000	0.00000000000000	-0.10436700000000	0.00000000000000	0.00000000000000	0.00000000000000	0.00000000000000	3.46226000000000	0.00000000000000	6.29200000000000	5.55170000000000	0.00000000000000	0.00000000000000	-0.35000000000000	0.00000000000000	-7.22020000000000	0.84804000000000	0.00000000000000	0.00000000000000	-0.35000000000000	0.00000000000000	
2.49452000000000	0.00000000000000	0.00000000000000	0.00000000000000	0.00000000000000	0.00000000000000	0.00000000000000	101.04100000000000	846.12599999999998	59.77740000000000	-0.30914900000000	0.00000000000000	-0.10510700000000	0.00000000000000	0.00000000000000	0.00000000000000	0.00000000000000	3.06580000000000	0.00000000000000	6.85930000000000	6.07300000000000	0.00000000000000	0.00000000000000	-0.35000000000000	0.00000000000000	-8.08010000000000	1.06700000000000	0.00000000000000	0.00000000000000	-0.35000000000000	0.00000000000000	
2.49952000000000	0.00000000000000	0.00000000000000	0.00000000000000	0.00000000000000	0.00000000000000	0.00000000000000	110.25900000000000	877.30100000000004	61.01840000000000	-0.32029200000000	0.00000000000000	-0.10597100000000	0.00000000000000	0.00000000000000	0.00000000000000	0.00000000000000	2.60672000000000	0.00000000000000	7.44780000000000	6.61680000000000	0.00000000000000	0.00000000000000	-0.35000000000000	0.00000000000000	-9.01420000000000	1.31710000000000	0.00000000000000	0.00000000000000	-0.35000000000000	0.00000000000000	
2.50452000000000	0.00000000000000	0.00000000000000	0.00000000000000	0.00000000000000	0.00000000000000	0.00000000000000	119.41400000000000	905.30200000000002	61.77500000000000	-0.33200600000000	0.00000000000000	-0.10693000000000	0.00000000000000	0.00000000000000	0.00000000000000	0.00000000000000	2.10108000000000	0.00000000000000	8.05140000000000	7.17850000000000	0.00000000000000	0.00000000000000	-0.35000000000000	0.00000000000000	-10.01500000000000	1.59810000000000	0.00000000000000	0.00000000000000	-0.35000000000000	0.00000000000000	
2.50952000000000	0.00000000000000	0.00000000000000	0.00000000000000	0.00000000000000	0.00000000000000	0.00000000000000	128.34000000000000	929.59699999999998	62.01900000000000	-0.34415500000000	0.00000000000000	-0.10795100000000	0.00000000000000	0.00000000000000	0.00000000000000	0.00000000000000	1.56494000000000	0.00000000000000	8.66130000000000	7.75060000000000	0.00000000000000	0.00000000000000	-0.35000000000000	0.00000000000000	-11.06900000000000	1.90740000000000	0.00000000000000	0.00000000000000	-0.35000000000000	0.00000000000000	
2.51452000000000	0.00000000000000	0.00000000000000	0.00000000000000	0.00000000000000	0.00000000000000	0.00000000000000	136.86900000000000	949.70000000000005	61.73210000000000	-0.35657800000000	0.00000000000000	-0.10899700000000	0.00000000000000	0.00000000000000	0.00000000000000	0.00000000000000	1.01392000000000	0.00000000000000	9.23060000000000	8.29130000000000	0.00000000000000	0.00000000000000	-0.35000000000000	0.00000000000000	-12.12700000000000	2.23520000000000	0.00000000000000	0.00000000000000	-0.35000000000000	0.00000000000000	
2.51952000000000	-3.73302000000000	48.87670000000000	14.66860000000000	-0.00995991000000	0.00000000000000	0.03729970000000	144.84000000000000	965.17999999999995	60.90620000000000	-0.36908500000000	0.00000000000000	-0.11002600000000	0.00000000000000	1.60608000000000	0.00000000000000	0.00000000000000	0.46278800000000	0.00000000000000	10.04100000000000	9.05500000000000	0.00000000000000	0.00000000000000	-0.35000000000000	0.00000000000000	-13.31800000000000	2.60320000000000	0.00000000000000	0.00000000000000	-0.35000000000000	0.00000000000000	
2.52452000000000	-9.27973000000000	82.68570000000000	17.57160000000000	-0.00553708000000	0.00000000000000	0.04309530000000	152.09700000000001	975.67399999999998	59.54360000000000	-0.38146600000000	0.00000000000000	-0.11099400000000	0.00000000000000	1.75861000000000	0.00000000000000	0.00000000000000	-0.07486130000000	0.00000000000000	10.55200000000000	9.55460000000000	0.00000000000000	0.00000000000000	-0.35000000000000	0.00000000000000	-14.27200000000000	2.93510000000000	0.00000000000000	0.00000000000000	-0.35000000000000	0.00000000000000	
2.52952000000000	-15.82090000000000	120.65500000000000	20.31440000000000	-0.00021141600000	0.00000000000000	0.04896300000000	158.49500000000000	980.89099999999996	57.65700000000000	-0.39348900000000	0.00000000000000	-0.11185500000000	0.00000000000000	1.85969000000000	0.00000000000000	0.00000000000000	-0.58690500000000	0.00000000000000	11.01400000000000	10.01500000000000	0.00000000000000	0.00000000000000	-0.35000000000000	0.00000000000000	-15.16200000000000	3.25760000000000	0.00000000000000	0.00000000000000	-0.35000000000000	0.00000000000000	
2.53452000000000	-23.31490000000000	162.53200000000001	22.80710000000000	0.00597328000000	0.00000000000000	0.05483180000000	163.90400000000000	980.61900000000003	55.26940000000000	-0.40491000000000	0.00000000000000	-0.11256000000000	0.00000000000000	1.89873000000000	0.00000000000000	0.00000000000000	-1.06290000000000	0.00000000000000	11.42100000000000	10.42900000000000	0.00000000000000	0.00000000000000	-0.35000000000000	0.00000000000000	-15.96600000000000	3.55970000000000	0.00000000000000	0.00000000000000	-0.35000000000000	0.00000000000000	
2.53952000000000	-31.69260000000000	207.97300000000001	24.96100000000000	0.01294160000000	0.00000000000000	0.06063210000000	168.21100000000001	974.73000000000002	52.41390000000000	-0.41547500000000	0.00000000000000	-0.11306100000000	0.00000000000000	1.86583000000000	0.00000000000000	0.00000000000000	-1.49422000000000	0.00000000000000	11.77000000000000	10.79400000000000	0.00000000000000	0.00000000000000	-0.35000000000000	0.00000000000000	-16.66200000000000	3.83020000000000	0.00000000000000	0.00000000000000	-0.35000000000000	0.00000000000000	
2.54452000000000	-40.85900000000000	256.54599999999999	26.69110000000000	0.02058750000000	0.00000000000000	0.06629720000000	171.32100000000000	963.18499999999995	49.13250000000000	-0.42492500000000	0.00000000000000	-0.11331000000000	0.00000000000000	1.75207000000000	0.00000000000000	0.00000000000000	-1.87418000000000	0.00000000000000	12.06100000000000	11.10900000000000	0.00000000000000	0.00000000000000	-0.35000000000000	0.00000000000000	-17.23100000000000	4.05920000000000	0.00000000000000	0.00000000000000	-0.35000000000000	0.00000000000000	
